<?xml version="1.0" encoding="UTF-8" standalone="no"?>
<svg
   width="80"
   height="80"
   viewBox="0 0 65 65"
   fill="none"
   version="1.1"
   id="svg59"
   sodipodi:docname="logo.svg"
   inkscape:version="1.1.2 (0a00cf5339, 2022-02-04)"
   xmlns:inkscape="http://www.inkscape.org/namespaces/inkscape"
   xmlns:sodipodi="http://sodipodi.sourceforge.net/DTD/sodipodi-0.dtd"
   xmlns="http://www.w3.org/2000/svg"
   xmlns:svg="http://www.w3.org/2000/svg">
  <defs
     id="defs63" />
  <sodipodi:namedview
     id="namedview61"
     pagecolor="#505050"
     bordercolor="#eeeeee"
     borderopacity="1"
     inkscape:pageshadow="0"
     inkscape:pageopacity="0"
     inkscape:pagecheckerboard="0"
     showgrid="false"
     inkscape:zoom="3.8625"
     inkscape:cx="6.4724919"
     inkscape:cy="82.588997"
     inkscape:window-width="1600"
     inkscape:window-height="828"
     inkscape:window-x="0"
     inkscape:window-y="0"
     inkscape:window-maximized="1"
     inkscape:current-layer="svg59" />
  <path
     d="m 36.677035,4.4258825 c -9.9e-5,2.356e-4 -3.93e-4,3.831e-4 -5.9e-4,3.438e-4 -2.703978,-0.4262262 -5.360901,-0.4171995 -7.970873,0.027089 -0.29017,0.047992 -0.435258,0.2191145 -0.435258,0.5133692 l 0.0091,20.2733495 c 0,0.182104 0.09106,0.273157 0.273176,0.273157 l 12.201541,-0.01866 c 0.108152,0 0.162177,0.05411 0.162177,0.162164 v 38.003821 c -9.8e-5,0.09155 -0.03095,0.180336 -0.08762,0.252135 -0.05658,0.07189 -0.135752,0.122679 -0.224651,0.14419 -4.845784,1.162759 -9.973781,1.161972 -15.383995,-0.0027 -0.03006,-0.0067 -0.05677,-0.02367 -0.07594,-0.04774 -0.01906,-0.02417 -0.02937,-0.05402 -0.02917,-0.08477 l -0.0061,-24.434294 c 0,-0.16413 0.08201,-0.245162 0.246165,-0.243101 l 3.560837,0.01856 c 0.100097,0 0.150096,0.05009 0.150096,0.150084 l 0.0061,21.152882 c 0,0.09607 0.04804,0.150084 0.144102,0.162165 2.441899,0.30223 4.941854,0.280229 7.499861,-0.06591 0.05795,-0.0072 0.111196,-0.03576 0.149899,-0.07994 0.0387,-0.0442 0.06011,-0.101171 0.06031,-0.160202 V 29.637421 c 0,-0.01925 -0.0038,-0.0384 -0.0112,-0.05629 -0.0074,-0.01788 -0.01818,-0.03408 -0.03183,-0.04784 -0.01375,-0.01365 -0.02996,-0.02446 -0.04774,-0.03191 -0.01788,-0.0073 -0.03703,-0.01121 -0.05639,-0.01121 l -12.306646,-0.01394 c -0.02249,0 -0.0447,-0.0044 -0.06551,-0.01306 -0.02072,-0.0086 -0.03959,-0.02121 -0.0555,-0.03714 -0.01591,-0.01592 -0.02848,-0.03477 -0.03713,-0.0555 -0.0086,-0.02083 -0.01296,-0.04312 -0.01296,-0.06561 -0.034,-8.960239 -0.03486,-17.856536 -0.0026,-26.6888138 0.0017,-0.346234 0.01473,-0.7105015 0.039,-1.092783 0.0061,-0.1121307 0.06109,-0.1911802 0.165126,-0.2371581 0.524449,-0.2341621 1.064812,-0.40828102 1.621285,-0.52237605 4.661701,-0.9426582 9.540489,-0.85658786 14.636465,0.25819725 0.04519,0.00965 0.08565,0.034318 0.114634,0.069876 0.02898,0.035545 0.0447,0.079815 0.0445,0.1253514 l -0.0031,19.4807723 c 0,0.0557 -0.0221,0.109127 -0.06159,0.148611 -0.03939,0.03939 -0.09283,0.06148 -0.148524,0.06148 l -3.40475,0.01395 c -0.09794,0 -0.191843,-0.0389 -0.261095,-0.108143 -0.06925,-0.06926 -0.108152,-0.163147 -0.108152,-0.261076 l -0.0062,-15.8331569 c 0,-0.1699839 -0.08291,-0.2680294 -0.248718,-0.2941466 -2.94e-4,-3.95e-5 -4.9e-4,9.8e-5 -5.88e-4,3.338e-4 z"
     fill="#0000ff"
     id="path53"
     style="stroke-width:0.982261;fill:#FFF" />
  <path
     d="M 2.8913585,45.910446 C 0.25529091,39.495639 -0.63040275,32.619087 0.89479369,25.838395 1.8375374,21.651865 3.1705773,18.125084 5.6144904,14.496359 7.6640984,11.453502 10.155034,8.8303751 13.087298,6.6271582 15.37812,4.9057434 18.068247,3.2353505 20.809354,2.233676 c 0.10216,-0.03599 0.153141,-0.00101 0.153141,0.1049575 l -0.0032,60.6418225 c 0,0.01923 -0.0047,0.03817 -0.01385,0.05515 -0.0091,0.01698 -0.0222,0.03149 -0.03821,0.04219 -0.0161,0.01071 -0.03448,0.01727 -0.05373,0.01913 -0.01915,0.0018 -0.03851,-0.0011 -0.05628,-0.0085 -1.33706,-0.559805 -2.660021,-1.201601 -3.969034,-1.925324 -1.158918,-0.643757 -2.59003,-1.613465 -4.293436,-2.909026 C 10.431158,56.654643 8.4225617,54.608377 6.5090611,52.115278 5.5933415,50.918623 4.85476,49.560168 4.0621519,48.264608 3.645814,47.582781 3.2556444,46.798127 2.8913585,45.910446 Z m 3.3986594,-23.59579 c -2.6000299,6.97958 -2.5900399,13.889198 0.02998,20.72876 1.3690805,3.566715 3.4887364,6.877633 6.3589581,9.93256 1.198012,1.274563 2.588065,2.285186 3.903071,3.382742 0.02239,0.01825 0.04961,0.02992 0.0783,0.03365 0.02868,0.0039 0.05785,-5.89e-4 0.08388,-0.01246 0.02613,-0.01197 0.04814,-0.0309 0.06355,-0.05485 0.01542,-0.02384 0.02357,-0.05161 0.02347,-0.08006 l -0.0031,-46.9636471 c 0,-0.3278142 -0.131039,-0.3928669 -0.393313,-0.1949614 -3.090413,2.3311045 -5.591349,5.0091575 -7.5028456,8.0341585 -1.146894,1.815392 -2.0274375,3.546697 -2.6419153,5.194111 z"
     fill="#0000ff"
     id="path55"
     style="stroke-width:0.981743;fill:#FFF" />
  <path
     d="M 48.34381,9.1431974 V 56.376674 c -1.97e-4,0.01618 0.004,0.03209 0.01228,0.04592 0.0083,0.01394 0.02023,0.02523 0.03457,0.03267 0.01434,0.0074 0.03045,0.01081 0.04657,0.0096 0.01611,-0.0012 0.03163,-0.0067 0.0447,-0.01628 3.03845,-2.149292 5.62347,-4.821262 7.755159,-8.016203 0.837608,-1.256509 1.483076,-2.693065 2.18267,-4.066532 1.405083,-2.774011 2.104676,-6.210817 2.332864,-9.338744 0.01198,-0.169941 0.104027,-0.255893 0.276223,-0.257955 l 3.821933,-0.0093 c 0.01807,-9.9e-5 0.03585,0.0037 0.05235,0.0109 0.01651,0.0071 0.03134,0.01776 0.04351,0.0311 0.01219,0.01325 0.02141,0.02894 0.02712,0.04601 0.0057,0.01706 0.0079,0.03512 0.0061,0.05309 -0.64046,7.917201 -3.583726,14.694851 -8.829895,20.332852 -2.618025,2.812965 -5.90264,5.170171 -9.157196,6.687675 -0.814621,0.379817 -1.616179,0.75571 -2.404867,1.127581 -0.184083,0.08801 -0.276223,0.03002 -0.276223,-0.173868 L 44.236617,2.3294007 c -9.9e-5,-0.020369 0.0048,-0.040464 0.01434,-0.05846 0.0096,-0.017995 0.02347,-0.033341 0.04047,-0.044644 0.017,-0.011303 0.03644,-0.018231 0.05678,-0.020135 0.02033,-0.0019 0.04077,0.00126 0.05952,0.0092 5.354222,2.21922 9.730662,5.4341001 13.129321,9.6446503 2.16774,2.687079 3.885095,5.895954 5.371217,9.071861 0.01827,0.03837 0.02643,0.08075 0.02387,0.123236 -0.0026,0.04249 -0.01591,0.0835 -0.0387,0.119509 -0.02279,0.03591 -0.05422,0.06544 -0.09155,0.08595 -0.03732,0.0205 -0.07928,0.0312 -0.121806,0.0311 l -3.638831,-0.0023 c -0.298226,0 -0.507455,-0.135992 -0.627493,-0.407878 C 56.684414,17.004926 54.115405,13.5901 50.706727,10.637119 50.00114,10.025348 49.394669,9.4345753 48.532996,9.0236535 48.406868,8.9636055 48.343804,9.0032485 48.343804,9.1431624 Z"
     fill="#0000ff"
     id="path57"
     style="stroke-width:0.981743;fill:#FFF" />
</svg>
