<?xml version="1.0" encoding="UTF-8" standalone="no"?>
<svg
   width="165"
   height="80"
   viewBox="0 0 165 80"
   fill="none"
   version="1.1"
   id="svg58"
   sodipodi:docname="logo-with-title.svg"
   inkscape:version="1.1.2 (0a00cf5339, 2022-02-04)"
   xmlns:inkscape="http://www.inkscape.org/namespaces/inkscape"
   xmlns:sodipodi="http://sodipodi.sourceforge.net/DTD/sodipodi-0.dtd"
   xmlns="http://www.w3.org/2000/svg"
   xmlns:svg="http://www.w3.org/2000/svg">
  <defs
     id="defs62" />
  <sodipodi:namedview
     id="namedview60"
     pagecolor="#505050"
     bordercolor="#eeeeee"
     borderopacity="1"
     inkscape:pageshadow="0"
     inkscape:pageopacity="0"
     inkscape:pagecheckerboard="0"
     showgrid="false"
     inkscape:zoom="3.2"
     inkscape:cx="93.4375"
     inkscape:cy="17.5"
     inkscape:window-width="1280"
     inkscape:window-height="952"
     inkscape:window-x="0"
     inkscape:window-y="0"
     inkscape:window-maximized="1"
     inkscape:current-layer="svg58" />
  <path
     d="m 37.188688,11.576766 c -10e-5,2.39e-4 -4e-4,3.88e-4 -6e-4,3.48e-4 -2.752862,-0.431534 -5.457821,-0.422395 -8.114977,0.02743 -0.295418,0.04859 -0.443127,0.221843 -0.443127,0.519762 l 0.0092,20.525804 c 0,0.184372 0.0927,0.276558 0.278116,0.276558 l 12.422131,-0.0189 c 0.110107,0 0.16511,0.05479 0.16511,0.164185 v 38.477063 c -1e-4,0.09268 -0.0315,0.182582 -0.0892,0.255277 -0.0576,0.07279 -0.138208,0.124207 -0.228714,0.145986 -4.93339,1.177236 -10.154097,1.17644 -15.662121,-0.0027 -0.0306,-0.0069 -0.0578,-0.02397 -0.0773,-0.04833 -0.0194,-0.02446 -0.0299,-0.05469 -0.0297,-0.08582 l -0.0062,-24.738565 c 0,-0.166174 0.08351,-0.248216 0.250615,-0.246128 l 3.625213,0.0188 c 0.101906,0 0.152809,0.05072 0.152809,0.151953 l 0.0062,21.416289 c 0,0.09726 0.0489,0.151953 0.146709,0.164185 2.486046,0.305993 5.031196,0.283718 7.635449,-0.06673 0.059,-0.0074 0.113207,-0.0362 0.152609,-0.08095 0.0394,-0.04475 0.0612,-0.102429 0.0614,-0.162196 V 37.102283 c 0,-0.01949 -0.0039,-0.03888 -0.0114,-0.05698 -0.0075,-0.0181 -0.0185,-0.03451 -0.0324,-0.04843 -0.014,-0.01382 -0.0305,-0.02476 -0.0486,-0.03232 -0.0182,-0.0075 -0.0377,-0.01134 -0.0574,-0.01134 l -12.529137,-0.01412 c -0.0229,0 -0.0455,-0.0045 -0.0667,-0.01323 -0.0211,-0.0088 -0.0403,-0.02148 -0.0565,-0.03759 -0.0162,-0.01611 -0.029,-0.0352 -0.0378,-0.05619 -0.0087,-0.02108 -0.0132,-0.04366 -0.0132,-0.06643 -0.0346,-9.071818 -0.0355,-18.078897 -0.0026,-27.0211579 0.0017,-0.3505455 0.015,-0.7193491 0.0397,-1.1063911 0.0062,-0.113527 0.0622,-0.1935608 0.16811,-0.2401112 0.533931,-0.2370781 1.084064,-0.4133652 1.650597,-0.5288811 4.745979,-0.9543966 9.712971,-0.8672545 14.901077,0.2614124 0.046,0.00977 0.08721,0.034746 0.116706,0.070746 0.0295,0.035989 0.0455,0.080809 0.0453,0.1269123 l -0.0032,19.7233576 c 0,0.05639 -0.0225,0.110484 -0.0627,0.150461 -0.0401,0.03988 -0.0945,0.06225 -0.151209,0.06225 l -3.466304,0.01412 c -0.09971,0 -0.195311,-0.03938 -0.265815,-0.10949 -0.0705,-0.07011 -0.110107,-0.165179 -0.110107,-0.264326 l -0.0062,-16.03033 c 0,-0.1721 -0.08441,-0.271367 -0.253215,-0.297809 -3e-4,-4e-5 -5e-4,9.9e-5 -6e-4,3.38e-4 z"
     fill="black"
     id="path2"
     style="fill:#ffffff;fill-opacity:1;stroke-width:0.997253" />
  <path
     d="M 2.7922043,53.476784 C 0.10847938,46.975234 -0.79322667,40.005694 0.75954369,33.133313 1.7193312,28.890171 3.076471,25.315702 5.5645674,21.637908 c 2.0866628,-3.084005 4.6226316,-5.742601 7.6079076,-7.97561 2.332237,-1.744693 5.070998,-3.437673 7.861663,-4.4528924 0.104006,-0.036477 0.155909,-0.00102 0.155909,0.1063769 l -0.0032,61.4618365 c 0,0.01949 -0.0048,0.03868 -0.0141,0.05589 -0.0092,0.0172 -0.0226,0.03192 -0.0389,0.04276 -0.0164,0.01084 -0.0351,0.0175 -0.0547,0.01939 -0.0195,0.0018 -0.0392,-0.0011 -0.0573,-0.0087 -1.36128,-0.567336 -2.70816,-1.21781 -4.040838,-1.95132 C 15.80113,68.283227 14.344144,67.300407 12.609942,65.987328 10.468316,64.366267 8.4234056,62.292331 6.475311,59.765519 5.5430361,58.552682 4.7911019,57.175859 3.9841644,55.86278 3.5602995,55.171733 3.1630761,54.376467 2.7922043,53.476784 Z M 6.2523079,29.561926 c -2.6470358,7.073958 -2.6368652,14.077011 0.030522,21.009059 1.393832,3.614945 3.5518089,6.970634 6.4739211,10.066871 1.219671,1.291797 2.634855,2.316086 3.973633,3.428483 0.0228,0.0185 0.0505,0.03033 0.07971,0.03411 0.0292,0.0039 0.0589,-5.97e-4 0.0854,-0.01263 0.0266,-0.01213 0.049,-0.03133 0.0647,-0.05559 0.0157,-0.02416 0.024,-0.05231 0.0239,-0.08115 l -0.0032,-47.598704 c 0,-0.332247 -0.133408,-0.398179 -0.400423,-0.197598 -3.146286,2.362627 -5.692435,5.076893 -7.6384897,8.142798 -1.1676287,1.839941 -2.0640914,3.594658 -2.6896782,5.264348 z"
     fill="black"
     id="path4"
     style="fill:#ffffff;fill-opacity:1;stroke-width:0.997253" />
  <path
     d="m 49.066387,16.212359 v 47.872179 c -2e-4,0.01641 0.0041,0.03252 0.0125,0.04654 0.0084,0.01412 0.0206,0.02556 0.0352,0.03312 0.0146,0.0076 0.031,0.01094 0.0474,0.0097 0.0164,-0.0012 0.0322,-0.0069 0.0455,-0.01651 3.093382,-2.178354 5.725137,-4.886454 7.895365,-8.124599 0.85275,-1.2735 1.509888,-2.729481 2.22213,-4.12152 1.430485,-2.811524 2.142726,-6.294802 2.37504,-9.465026 0.0122,-0.172239 0.105906,-0.259353 0.281217,-0.261442 l 3.891029,-0.0094 c 0.0184,-1e-4 0.0365,0.0037 0.0533,0.01104 0.0168,0.0073 0.0319,0.018 0.0443,0.03152 0.0124,0.01343 0.0218,0.02934 0.0276,0.04664 0.0058,0.0173 0.008,0.0356 0.0062,0.0538 -0.652038,8.02426 -3.648514,14.893558 -8.989529,20.607797 -2.665356,2.851004 -6.009353,5.240083 -9.322748,6.778108 -0.829349,0.384953 -1.645397,0.765929 -2.448344,1.142828 -0.187411,0.0892 -0.281217,0.03043 -0.281217,-0.176218 L 44.88493,9.3064167 c -10e-5,-0.020645 0.0049,-0.041011 0.0146,-0.05925 0.0098,-0.018238 0.0239,-0.033792 0.0412,-0.045248 0.0173,-0.011456 0.0371,-0.018477 0.0578,-0.020406 0.0207,-0.00193 0.0415,0.00127 0.0606,0.00933 5.451021,2.2492293 9.906583,5.5075813 13.366687,9.7750673 2.206929,2.723415 3.955332,5.975682 5.468321,9.194534 0.0186,0.03888 0.0269,0.08184 0.0243,0.124904 -0.0026,0.04306 -0.0162,0.08463 -0.0394,0.121124 -0.0232,0.0364 -0.0552,0.06633 -0.0932,0.08712 -0.038,0.02078 -0.08071,0.03162 -0.124007,0.03152 l -3.704618,-0.0023 c -0.303618,0 -0.516631,-0.137832 -0.638838,-0.413395 -1.760604,-3.928993 -4.376057,-7.389996 -7.846362,-10.382908 -0.718342,-0.620043 -1.335778,-1.218805 -2.21303,-1.635282 -0.128407,-0.06086 -0.192611,-0.02069 -0.192611,0.121124 z"
     fill="black"
     id="path6"
     style="fill:#ffffff;fill-opacity:1;stroke-width:0.997253" />
  <path
     d="m 161.75952,72.512745 h -2.69516 c -0.054,0 -0.081,-0.03043 -0.081,-0.09129 l 0.023,-6.637591 -3.14219,-9.431712 c -0.015,-0.06086 0.008,-0.09129 0.069,-0.09129 h 2.61516 c 0.076,0 0.12201,0.03043 0.13701,0.09129 l 1.7321,6.283963 1.7661,-6.283963 c 0.015,-0.06086 0.054,-0.09129 0.11501,-0.09129 h 2.63815 c 0.061,0 0.084,0.03043 0.068,0.09129 l -3.17619,9.34052 0.023,6.728783 c 0,0.06086 -0.031,0.09129 -0.092,0.09129 z"
     fill="black"
     id="path8"
     style="fill:#ffffff;fill-opacity:1;stroke-width:0.997253" />
  <path
     d="m 152.46997,72.512745 h -2.65016 c -0.068,0 -0.103,-0.03809 -0.103,-0.114064 V 59.077854 h -3.05018 c -0.077,0 -0.11501,-0.03799 -0.11501,-0.114064 l 0.023,-2.611639 c 0,-0.06086 0.03,-0.09129 0.092,-0.09129 h 8.92252 c 0.084,0 0.12601,0.03043 0.12601,0.09129 v 2.611639 c 0,0.07607 -0.03,0.114064 -0.092,0.114064 h -3.08519 l 0.023,13.320827 c 0,0.07598 -0.03,0.114064 -0.091,0.114064 z"
     fill="black"
     id="path10"
     style="fill:#ffffff;fill-opacity:1;stroke-width:0.997253" />
  <path
     d="m 145.30155,72.512745 h -2.66116 c -0.076,0 -0.115,-0.03809 -0.115,-0.114064 l 0.023,-16.04653 c 0,-0.06086 0.031,-0.09129 0.092,-0.09129 h 2.63816 c 0.061,0 0.091,0.03043 0.091,0.09129 l 0.023,16.04653 c 0,0.07598 -0.03,0.114064 -0.091,0.114064 z"
     fill="black"
     id="path12"
     style="fill:#ffffff;fill-opacity:1;stroke-width:0.997253" />
  <path
     d="m 134.18789,72.512745 h -2.35113 c -0.12201,0 -0.18401,-0.0533 -0.18401,-0.15971 l -0.023,-15.909692 c 0,-0.121622 0.062,-0.182483 0.18402,-0.182483 h 2.12212 l 3.96823,9.203683 -0.115,-9.0212 c 0,-0.121622 0.069,-0.182483 0.20601,-0.182483 h 2.32814 c 0.092,0 0.138,0.06086 0.138,0.182483 l 0.023,15.932465 c 0,0.09129 -0.038,0.136937 -0.11501,0.136937 h -2.06412 l -4.07124,-8.599253 0.17201,8.41677 c 0,0.121622 -0.073,0.182483 -0.21802,0.182483 z"
     fill="black"
     id="path14"
     style="fill:#ffffff;fill-opacity:1;stroke-width:0.997253" />
  <path
     d="m 125.15036,72.740773 c -0.82605,0 -1.59109,-0.212913 -2.29413,-0.638639 -0.70304,-0.425826 -1.26508,-0.996046 -1.6861,-1.710761 -0.41303,-0.722273 -0.61904,-1.509185 -0.61904,-2.360737 l 0.046,-11.678485 c 0,-0.06086 0.03,-0.09129 0.092,-0.09129 h 2.63716 c 0.061,0 0.092,0.03043 0.092,0.09129 v 11.678485 c 0,0.524575 0.16801,0.973173 0.50503,1.345696 0.33602,0.364965 0.74504,0.547448 1.22707,0.547448 0.50403,0 0.92506,-0.182483 1.26108,-0.547448 0.33702,-0.372523 0.50503,-0.821121 0.50503,-1.345696 V 56.352151 c 0,-0.06086 0.03,-0.09129 0.092,-0.09129 h 2.63716 c 0.062,0 0.092,0.03043 0.092,0.09129 l 0.046,11.678485 c 0,0.859109 -0.20602,1.6499 -0.61904,2.372173 -0.42103,0.714715 -0.97906,1.284936 -1.6751,1.710761 -0.69504,0.418169 -1.47509,0.627203 -2.33914,0.627203 z"
     fill="black"
     id="path16"
     style="fill:#ffffff;fill-opacity:1;stroke-width:0.997253" />
  <path
     d="m 110.96253,72.512745 h -2.66016 c -0.061,0 -0.092,-0.03809 -0.092,-0.114064 l 0.046,-16.04653 c 0,-0.06086 0.03,-0.09129 0.092,-0.09129 h 2.86717 c 0.061,0 0.11401,0.03043 0.16001,0.09129 l 2.14513,3.079231 2.13312,-3.079231 c 0.046,-0.06086 0.10301,-0.09129 0.17201,-0.09129 h 2.87917 c 0.068,0 0.10301,0.03043 0.10301,0.09129 l 0.046,16.04653 c 0,0.07598 -0.031,0.114064 -0.092,0.114064 h -2.66116 c -0.061,0 -0.092,-0.03809 -0.092,-0.114064 l -0.022,-11.918049 -2.46614,3.55826 -2.44314,-3.55826 -0.023,11.918049 c 0,0.07598 -0.03,0.114064 -0.092,0.114064 z"
     fill="black"
     id="path18"
     style="fill:#ffffff;fill-opacity:1;stroke-width:0.997253" />
  <path
     d="M 98.346986,72.512745 H 95.68613 c -0.0612,0 -0.09181,-0.03809 -0.09181,-0.114064 l 0.0459,-16.04653 c 0,-0.06086 0.0306,-0.09129 0.09181,-0.09129 h 2.867269 c 0.0611,0 0.114607,0.03043 0.16051,0.09129 l 2.145131,3.079231 2.13312,-3.079231 c 0.046,-0.06086 0.10301,-0.09129 0.17201,-0.09129 h 2.87817 c 0.069,0 0.10401,0.03043 0.10401,0.09129 l 0.045,16.04653 c 0,0.07598 -0.03,0.114064 -0.091,0.114064 h -2.66116 c -0.061,0 -0.092,-0.03809 -0.092,-0.114064 l -0.023,-11.918049 -2.46514,3.55826 -2.443349,-3.55826 -0.0229,11.918049 c 0,0.07598 -0.0306,0.114064 -0.09171,0.114064 z"
     fill="black"
     id="path20"
     style="fill:#ffffff;fill-opacity:1;stroke-width:0.997253" />
  <path
     d="m 89.206148,72.740773 c -0.833449,0 -1.601894,-0.212913 -2.305335,-0.638639 -0.695741,-0.425826 -1.257774,-0.992267 -1.685899,-1.699325 -0.420525,-0.714715 -0.630837,-1.497848 -0.630837,-2.3494 l 0.0229,-7.401731 c 0,-0.866767 0.210312,-1.646121 0.630837,-2.337964 0.412924,-0.6995 0.971057,-1.258284 1.674499,-1.676552 0.703441,-0.425726 1.467986,-0.638639 2.293834,-0.638639 0.856351,0 1.624696,0.209134 2.305236,0.627302 0.688141,0.418169 1.238673,0.980832 1.651597,1.687889 0.420525,0.6995 0.630737,1.478855 0.630737,2.337964 l 0.0229,7.401731 c 0,0.851552 -0.206412,1.630906 -0.619237,2.337964 -0.420624,0.714715 -0.978757,1.284935 -1.674498,1.710761 -0.695841,0.425726 -1.468087,0.638639 -2.316737,0.638639 z m 0,-2.816993 c 0.474028,0 0.886853,-0.19004 1.238573,-0.570221 0.351721,-0.387738 0.527631,-0.821121 0.527631,-1.30015 l -0.0229,-7.401731 c 0,-0.517017 -0.16441,-0.954179 -0.493229,-1.311587 -0.328719,-0.357307 -0.745444,-0.536011 -1.250074,-0.536011 -0.481728,0 -0.894652,0.174925 -1.238672,0.524675 -0.344121,0.34975 -0.516131,0.790691 -0.516131,1.322923 v 7.401731 c 0,0.509359 0.17201,0.9504 0.516131,1.322923 0.34402,0.364965 0.756944,0.547448 1.238671,0.547448 z"
     fill="black"
     id="path22"
     style="fill:#ffffff;fill-opacity:1;stroke-width:0.997253" />
  <path
     d="m 78.539821,72.740873 c -0.84865,0 -1.624796,-0.212913 -2.328237,-0.63864 -0.695741,-0.425825 -1.250074,-0.996046 -1.662998,-1.710761 -0.405224,-0.722273 -0.607836,-1.5244 -0.607836,-2.406383 l 0.0229,-7.287666 c 0,-0.866767 0.198811,-1.6499 0.596435,-2.3494 0.397623,-0.707058 0.944255,-1.273499 1.640096,-1.699325 0.703442,-0.433384 1.483288,-0.650075 2.339638,-0.650075 0.871651,0 1.647697,0.209133 2.328237,0.627302 0.68814,0.418168 1.234873,0.98461 1.640096,1.699325 0.412825,0.707058 0.619337,1.497749 0.619337,2.372173 v 1.072023 c 0,0.06086 -0.0306,0.09129 -0.09181,0.09129 H 80.39783 c -0.0612,0 -0.09171,-0.03043 -0.09171,-0.09129 v -1.072023 c 0,-0.517017 -0.16821,-0.961837 -0.50473,-1.33436 -0.33642,-0.372622 -0.756944,-0.558883 -1.261574,-0.558883 -0.558133,0 -0.986358,0.190139 -1.284476,0.57022 -0.298217,0.38018 -0.447326,0.821221 -0.447326,1.323023 v 7.287666 c 0,0.570221 0.16821,1.037814 0.50463,1.402779 0.33642,0.357308 0.745544,0.536011 1.227172,0.536011 0.50463,0 0.925154,-0.197697 1.261574,-0.593093 0.33652,-0.402953 0.50473,-0.851552 0.50473,-1.345697 v -1.083458 c 0,-0.06086 0.0305,-0.09129 0.09171,-0.09129 h 2.660857 c 0.0611,0 0.0917,0.03043 0.0917,0.09129 v 1.083458 c 0,0.874325 -0.206412,1.672674 -0.619336,2.394947 -0.420525,0.714715 -0.974858,1.288814 -1.662998,1.722197 -0.688141,0.425727 -1.464186,0.63864 -2.328237,0.63864 z"
     fill="black"
     id="path24"
     style="fill:#ffffff;fill-opacity:1;stroke-width:0.997253" />
  <path
     d="m 135.74799,46.966085 h -7.59245 c -0.062,0 -0.092,-0.03799 -0.092,-0.114064 l 0.023,-16.046529 c 0,-0.06086 0.03,-0.09119 0.091,-0.09119 h 7.54745 c 0.061,0 0.091,0.03799 0.091,0.113964 v 2.611738 c 0,0.06086 -0.03,0.09119 -0.091,0.09119 h -4.81729 v 3.649552 h 4.81729 c 0.061,0 0.091,0.03043 0.091,0.09129 l 0.023,2.645847 c 0,0.06086 -0.03,0.09129 -0.091,0.09129 h -4.84029 v 4.082935 h 4.84029 c 0.061,0 0.091,0.03799 0.091,0.113964 v 2.66872 c 0,0.06086 -0.03,0.09129 -0.091,0.09129 z"
     fill="black"
     id="path38"
     style="fill:#ffffff;fill-opacity:1;stroke-width:0.997253" />
  <path
     d="m 121.74416,47.194114 c -0.84905,0 -1.62509,-0.212814 -2.32813,-0.638639 -0.69605,-0.425726 -1.25008,-0.996047 -1.6631,-1.710662 -0.40603,-0.722372 -0.60804,-1.5245 -0.60804,-2.406482 l 0.023,-7.287666 c 0,-0.866767 0.19902,-1.649901 0.59604,-2.349401 0.39802,-0.707057 0.94405,-1.273499 1.6401,-1.699225 0.70304,-0.433384 1.48308,-0.650076 2.34013,-0.650076 0.87105,0 1.6471,0.209035 2.32814,0.627203 0.68804,0.418169 1.23407,0.98461 1.6401,1.699325 0.41302,0.707058 0.61903,1.497849 0.61903,2.372174 v 1.072122 c 0,0.06076 -0.031,0.09119 -0.092,0.09119 h -2.63716 c -0.062,0 -0.092,-0.03043 -0.092,-0.09119 v -1.072122 c 0,-0.517018 -0.16801,-0.961738 -0.50503,-1.33436 -0.33602,-0.372523 -0.75705,-0.558785 -1.26108,-0.558785 -0.55803,0 -0.98706,0.190041 -1.28507,0.570221 -0.29802,0.38018 -0.44703,0.821122 -0.44703,1.322924 v 7.287666 c 0,0.57022 0.16801,1.037913 0.50503,1.402778 0.33602,0.357407 0.74504,0.536111 1.22707,0.536111 0.50403,0 0.92506,-0.197698 1.26108,-0.593093 0.33702,-0.402953 0.50503,-0.851552 0.50503,-1.345796 v -1.083459 c 0,-0.06076 0.03,-0.09119 0.092,-0.09119 h 2.66016 c 0.061,0 0.092,0.03043 0.092,0.09119 v 1.083459 c 0,0.874424 -0.20701,1.672773 -0.61903,2.395046 -0.42103,0.714715 -0.97506,1.288714 -1.6631,1.722098 -0.68804,0.425825 -1.46409,0.638639 -2.32814,0.638639 z"
     fill="black"
     id="path40"
     style="fill:#ffffff;fill-opacity:1;stroke-width:0.997253" />
  <path
     d="m 108.8414,46.966085 h -2.66115 c -0.061,0 -0.092,-0.03799 -0.092,-0.114064 l 0.046,-16.046529 c 0,-0.06086 0.031,-0.09119 0.092,-0.09119 h 4.74828 c 0.84805,0 1.6281,0.205255 2.33914,0.615766 0.71104,0.410611 1.27707,0.961837 1.6981,1.653779 0.42802,0.691843 0.64203,1.474976 0.64203,2.349301 0,0.57032 -0.088,1.087338 -0.26401,1.551052 -0.17601,0.463814 -0.38202,0.85543 -0.61904,1.17475 -0.23001,0.31932 -0.44002,0.555005 -0.63103,0.707058 0.84905,0.935185 1.27307,2.033859 1.27307,3.296022 l 0.023,4.789992 c 0,0.07608 -0.038,0.114064 -0.11501,0.114064 h -2.66015 c -0.062,0 -0.092,-0.02277 -0.092,-0.06842 v -4.835638 c 0,-0.562663 -0.19901,-1.04925 -0.59603,-1.45986 -0.39803,-0.410511 -0.88705,-0.615866 -1.46809,-0.615866 h -1.54909 l -0.023,6.865718 c 0,0.07608 -0.03,0.114064 -0.091,0.114064 z m 2.13313,-13.457664 h -2.01912 v 3.672325 h 2.01912 c 0.48103,0 0.91005,-0.178605 1.28407,-0.536012 0.38303,-0.357308 0.57404,-0.79457 0.57404,-1.311587 0,-0.494145 -0.18401,-0.91997 -0.55103,-1.277278 -0.36703,-0.364965 -0.80305,-0.547448 -1.30708,-0.547448 z"
     fill="black"
     id="path42"
     style="fill:#ffffff;fill-opacity:1;stroke-width:0.997253" />
  <path
     d="m 99.608561,47.194213 c -0.825749,0 -1.590394,-0.212913 -2.293735,-0.638738 -0.703442,-0.425726 -1.265475,-0.995947 -1.686,-1.710662 -0.412924,-0.722372 -0.619336,-1.509285 -0.619336,-2.360837 l 0.0459,-11.678484 c 0,-0.06086 0.0306,-0.09119 0.09171,-0.09119 h 2.637955 c 0.0611,0 0.09171,0.03033 0.09171,0.09119 v 11.678484 c 0,0.524675 0.16821,0.973274 0.504629,1.345797 0.33642,0.364965 0.745544,0.547447 1.227173,0.547447 0.504333,0 0.925353,-0.182482 1.261373,-0.547447 0.33702,-0.372523 0.50503,-0.821122 0.50503,-1.345797 V 30.805492 c 0,-0.06086 0.03,-0.09119 0.092,-0.09119 h 2.63716 c 0.061,0 0.092,0.03033 0.092,0.09119 l 0.046,11.678484 c 0,0.85921 -0.20601,1.649901 -0.61903,2.372174 -0.42103,0.714715 -0.97906,1.285035 -1.6751,1.710761 -0.69504,0.418168 -1.47509,0.627302 -2.339443,0.627302 z"
     fill="black"
     id="path44"
     style="fill:#ffffff;fill-opacity:1;stroke-width:0.997253" />
  <path
     d="m 88.89653,47.194114 c -0.833449,0 -1.601894,-0.212814 -2.305335,-0.638639 -0.695741,-0.425726 -1.257774,-0.992168 -1.6859,-1.699325 -0.420524,-0.714715 -0.630837,-1.497849 -0.630837,-2.349401 l 0.023,-7.40163 c 0,-0.866768 0.210212,-1.646122 0.630737,-2.338064 0.412924,-0.6995 0.971057,-1.258284 1.674498,-1.676453 0.703442,-0.425825 1.468087,-0.638639 2.293835,-0.638639 0.856351,0 1.624796,0.209035 2.305236,0.627203 0.68814,0.418169 1.238673,0.980831 1.651597,1.687889 0.420525,0.6995 0.630737,1.478854 0.630737,2.338064 l 0.023,7.40163 c 0,0.851552 -0.206513,1.630907 -0.619337,2.338064 -0.420525,0.714615 -0.978657,1.284936 -1.674498,1.710662 -0.695741,0.425825 -1.468087,0.638639 -2.316737,0.638639 z m 0,-2.816894 c 0.474028,0 0.886952,-0.19014 1.238673,-0.57032 0.351721,-0.387738 0.527531,-0.821122 0.527531,-1.300151 l -0.0229,-7.40163 c 0,-0.517018 -0.16441,-0.95428 -0.493229,-1.311587 -0.32872,-0.357308 -0.745444,-0.536012 -1.250074,-0.536012 -0.481728,0 -0.894552,0.174826 -1.238673,0.524575 -0.34402,0.34975 -0.51613,0.790791 -0.51613,1.323024 v 7.40163 c 0,0.50946 0.17211,0.950401 0.51613,1.323024 0.344121,0.364965 0.756945,0.547447 1.238672,0.547447 z"
     fill="black"
     id="path46"
     style="fill:#ffffff;fill-opacity:1;stroke-width:0.997253" />
  <path
     d="m 78.310507,47.194213 c -0.833449,0 -1.601894,-0.212813 -2.305335,-0.638639 -0.695741,-0.425726 -1.253974,-0.992168 -1.674499,-1.699325 -0.412824,-0.714715 -0.619336,-1.497848 -0.619336,-2.3494 v -1.072023 c 0,-0.08363 0.0383,-0.125401 0.114707,-0.125401 h 2.637855 c 0.0612,0 0.09181,0.04177 0.09181,0.125401 v 1.072023 c 0,0.509459 0.17201,0.950401 0.516131,1.323023 0.34402,0.364965 0.756944,0.547448 1.238672,0.547448 0.489329,0 0.906054,-0.186361 1.250074,-0.558884 0.34412,-0.380181 0.51613,-0.817343 0.51613,-1.311587 0,-0.570221 -0.374722,-1.068244 -1.123966,-1.49397 -0.122307,-0.07608 -0.282916,-0.167268 -0.481728,-0.273774 -0.191111,-0.113964 -0.420525,-0.243244 -0.688141,-0.387738 -0.267615,-0.144395 -0.527531,-0.28511 -0.779845,-0.421947 -0.252315,-0.144495 -0.49703,-0.281332 -0.734044,-0.410611 -0.85635,-0.501802 -1.494788,-1.129005 -1.915312,-1.881807 -0.412925,-0.760261 -0.619337,-1.611813 -0.619337,-2.554656 0,-0.866768 0.214013,-1.649901 0.642238,-2.349401 0.428225,-0.691842 0.986358,-1.23929 1.674498,-1.642243 0.695741,-0.410611 1.448886,-0.615866 2.259433,-0.615866 0.833349,0 1.597994,0.205255 2.293735,0.615866 0.695841,0.418168 1.250174,0.973174 1.662998,1.665116 0.420625,0.691842 0.630837,1.467418 0.630837,2.326528 v 1.916016 c 0,0.06086 -0.0306,0.09129 -0.09171,0.09129 h -2.637955 c -0.0611,0 -0.09171,-0.03043 -0.09171,-0.09129 l -0.023,-1.916016 c 0,-0.547448 -0.17201,-0.992168 -0.51603,-1.33436 -0.344121,-0.342093 -0.753145,-0.513239 -1.227173,-0.513239 -0.481728,0 -0.894652,0.182483 -1.238672,0.547448 -0.344121,0.364965 -0.516131,0.798349 -0.516131,1.300151 0,0.509459 0.107006,0.935185 0.321119,1.277377 0.221713,0.342093 0.623137,0.66907 1.204271,0.980832 0.0611,0.03033 0.202612,0.106406 0.424325,0.228028 0.221713,0.121721 0.466427,0.258558 0.734043,0.410611 0.275216,0.144494 0.523731,0.277552 0.745444,0.399174 0.221813,0.114064 0.355621,0.182482 0.401424,0.205256 0.779945,0.433383 1.395482,0.965616 1.846508,1.596697 0.458827,0.631081 0.688141,1.406557 0.688141,2.326528 0,0.889639 -0.206412,1.687988 -0.619237,2.395046 -0.420624,0.707057 -0.978757,1.265941 -1.674498,1.676552 -0.695841,0.410511 -1.468087,0.615766 -2.316737,0.615766 z"
     fill="black"
     id="path48"
     style="fill:#ffffff;fill-opacity:1;stroke-width:0.997253" />
  <path
     d="m 108.34837,22.514321 h -2.35113 c -0.12301,0 -0.18401,-0.0533 -0.18401,-0.159709 l -0.023,-15.9096825 c 0,-0.1216507 0.061,-0.1824765 0.18402,-0.1824765 h 2.12112 l 3.96823,9.203667 -0.114,-9.0211905 c 0,-0.1216507 0.069,-0.1824765 0.20601,-0.1824765 h 2.32814 c 0.092,0 0.138,0.060826 0.138,0.1824765 l 0.023,15.9324555 c 0,0.09129 -0.038,0.136936 -0.11501,0.136936 h -2.06412 l -4.07124,-8.599253 0.17201,8.416771 c 0,0.121622 -0.073,0.182482 -0.21802,0.182482 z"
     fill="black"
     id="path50"
     style="fill:#ffffff;fill-opacity:1;stroke-width:0.997253" />
  <path
     d="m 103.6111,22.514321 h -7.592451 c -0.0612,0 -0.0917,-0.03809 -0.0917,-0.114064 l 0.0229,-16.0465657 c 0,-0.060826 0.0306,-0.091238 0.09171,-0.091238 h 7.546541 c 0.061,0 0.092,0.038016 0.092,0.1140481 V 8.988199 c 0,0.060821 -0.031,0.091241 -0.092,0.091241 h -4.816881 v 3.649532 h 4.816881 c 0.061,0 0.092,0.03041 0.092,0.09124 l 0.023,2.645907 c 0,0.06083 -0.031,0.09124 -0.092,0.09124 h -4.839891 v 4.082885 h 4.839891 c 0.061,0 0.092,0.03809 0.092,0.114064 v 2.66872 c 0,0.06086 -0.031,0.09129 -0.092,0.09129 z"
     fill="black"
     id="path52"
     style="fill:#ffffff;fill-opacity:1;stroke-width:0.997253" />
  <path
     d="m 87.760963,22.514321 h -2.637855 c -0.0765,0 -0.114706,-0.03809 -0.114706,-0.114064 l 0.0459,-16.0465657 c 0,-0.060826 0.0306,-0.091238 0.09171,-0.091238 h 4.518865 c 1.437485,0 2.572852,0.4371834 3.406301,1.3115511 0.841049,0.8667672 1.261574,2.0490651 1.261574,3.5468936 0,1.094855 -0.217913,2.049055 -0.653738,2.862599 -0.443426,0.805936 -1.01686,1.4294 -1.720302,1.870391 -0.703441,0.441011 -1.468086,0.661482 -2.293835,0.661482 H 87.87567 v 5.884887 c 0,0.07598 -0.0382,0.114064 -0.114707,0.114064 z M 89.664875,9.0338147 87.87567,9.0566275 V 13.68697 h 1.789205 c 0.49693,0 0.928955,-0.235696 1.295977,-0.707097 0.367021,-0.479 0.550532,-1.098655 0.550532,-1.858975 0,-0.608259 -0.16441,-1.106272 -0.493129,-1.49403 -0.328819,-0.3953656 -0.779946,-0.5930533 -1.35338,-0.5930533 z"
     fill="black"
     id="path54"
     style="fill:#ffffff;fill-opacity:1;stroke-width:0.997253" />
  <path
     d="m 78.620126,22.74225 c -0.833349,0 -1.601795,-0.212813 -2.305236,-0.638639 -0.695841,-0.425726 -1.257774,-0.992168 -1.685999,-1.699325 -0.420525,-0.714715 -0.630737,-1.497848 -0.630737,-2.3494 l 0.0229,-7.401671 c 0,-0.8667668 0.210312,-1.6460915 0.630837,-2.3379837 0.412824,-0.6994899 0.971057,-1.258324 1.674499,-1.6765013 0.703441,-0.425779 1.467986,-0.638669 2.293735,-0.638669 0.85635,0 1.624795,0.2090882 2.305335,0.6272636 0.688141,0.4181763 1.238673,0.9808093 1.651497,1.6879067 0.420525,0.6994998 0.630838,1.4788245 0.630838,2.3379837 l 0.0229,7.401671 c 0,0.851552 -0.206412,1.630906 -0.619337,2.338063 -0.420524,0.714616 -0.978657,1.284936 -1.674498,1.710662 -0.695741,0.425826 -1.467986,0.638639 -2.316736,0.638639 z m 0,-2.816893 c 0.474128,0 0.886952,-0.19014 1.238673,-0.57032 0.35172,-0.387739 0.527631,-0.821122 0.527631,-1.300151 l -0.023,-7.401671 c 0,-0.517017 -0.164409,-0.9541993 -0.493129,-1.3115468 -0.328819,-0.3573575 -0.745544,-0.5360313 -1.250173,-0.5360313 -0.481629,0 -0.894553,0.174875 -1.238673,0.5246249 -0.34402,0.3497499 -0.516031,0.7907312 -0.516031,1.3229532 v 7.401671 c 0,0.509459 0.172011,0.950401 0.516031,1.323023 0.34412,0.364965 0.757044,0.547448 1.238673,0.547448 z"
     fill="black"
     id="path56"
     style="fill:#ffffff;fill-opacity:1;stroke-width:0.997253" />
</svg>
