<svg width="165" height="80" viewBox="0 0 165 80" fill="none" xmlns="http://www.w3.org/2000/svg">
<path d="M37.1865 5.60786C37.1864 5.6081 37.1861 5.60825 37.1859 5.60821C34.4332 5.17427 31.7284 5.18346 29.0714 5.63579C28.776 5.68465 28.6283 5.85887 28.6283 6.15845L28.6375 26.7987C28.6375 26.9841 28.7302 27.0768 28.9156 27.0768L41.337 27.0578C41.4471 27.0578 41.5021 27.1129 41.5021 27.2229V65.9145C41.502 66.0077 41.4706 66.0981 41.4129 66.1712C41.3553 66.2444 41.2747 66.2961 41.1842 66.318C36.2511 67.5018 31.0307 67.501 25.523 66.3153C25.4924 66.3084 25.4652 66.2912 25.4457 66.2667C25.4263 66.2421 25.4158 66.2117 25.416 66.1804L25.4098 41.3039C25.4098 41.1368 25.4933 41.0543 25.6604 41.0564L29.2854 41.0753C29.3873 41.0753 29.4382 41.1263 29.4382 41.2281L29.4444 62.7638C29.4444 62.8616 29.4933 62.9166 29.5911 62.9289C32.077 63.2366 34.622 63.2142 37.2261 62.8618C37.2851 62.8544 37.3393 62.8254 37.3787 62.7804C37.4181 62.7354 37.4399 62.6774 37.4401 62.6173V31.2757C37.4401 31.2561 37.4362 31.2366 37.4287 31.2184C37.4212 31.2002 37.4102 31.1837 37.3963 31.1697C37.3823 31.1558 37.3658 31.1448 37.3477 31.1372C37.3295 31.1297 37.31 31.1258 37.2903 31.1258L24.7619 31.1116C24.739 31.1116 24.7164 31.1071 24.6952 31.0983C24.6741 31.0895 24.6549 31.0767 24.6387 31.0605C24.6225 31.0443 24.6097 31.0251 24.6009 31.004C24.5922 30.9828 24.5877 30.9601 24.5877 30.9372C24.5531 21.8148 24.5522 12.7575 24.5851 3.76538C24.5868 3.41288 24.6001 3.04202 24.6248 2.65282C24.631 2.53866 24.687 2.45818 24.7929 2.41137C25.3268 2.17297 25.8769 1.9957 26.4434 1.87954C31.1891 0.919822 36.1558 1.00745 41.3436 2.14241C41.3896 2.15223 41.4308 2.17735 41.4603 2.21355C41.4898 2.24974 41.5058 2.29481 41.5056 2.34117L41.5024 22.1745C41.5024 22.2312 41.4799 22.2856 41.4397 22.3258C41.3996 22.3659 41.3452 22.3884 41.2885 22.3884L37.8224 22.4026C37.7227 22.4026 37.6271 22.363 37.5566 22.2925C37.4861 22.222 37.4465 22.1264 37.4465 22.0267L37.4403 5.90699C37.4403 5.73393 37.3559 5.63411 37.1871 5.60752C37.1868 5.60748 37.1866 5.60762 37.1865 5.60786V5.60786Z" fill="white"/>
<path d="M2.79204 47.7415C0.108473 41.2037 -0.79318 34.1953 0.759499 27.2846C1.71923 23.0178 3.07629 19.4234 5.56424 15.7251C7.65078 12.6239 10.1866 9.95048 13.1717 7.70502C15.5038 5.9506 18.2424 4.24818 21.0329 3.2273C21.1369 3.19062 21.1888 3.22627 21.1888 3.33427L21.1856 65.1388C21.1856 65.1584 21.1808 65.1777 21.1715 65.195C21.1623 65.2123 21.1489 65.2271 21.1326 65.238C21.1162 65.2489 21.0975 65.2556 21.0779 65.2575C21.0584 65.2593 21.0387 65.2564 21.0206 65.2488C19.6594 64.6783 18.3126 64.0242 16.98 63.2866C15.8002 62.6305 14.3433 61.6422 12.6092 60.3218C10.4677 58.6917 8.42291 56.6062 6.47493 54.0653C5.54271 52.8457 4.79082 51.4612 3.98393 50.1408C3.56009 49.4459 3.16289 48.6462 2.79204 47.7415ZM6.25194 23.6933C3.60506 30.8067 3.61523 37.8488 6.28246 44.8195C7.67621 48.4546 9.83406 51.829 12.756 54.9425C13.9756 56.2415 15.3907 57.2715 16.7294 58.3901C16.7522 58.4087 16.7799 58.4206 16.8091 58.4244C16.8383 58.4283 16.868 58.4238 16.8945 58.4117C16.9211 58.3995 16.9435 58.3802 16.9592 58.3558C16.9749 58.3315 16.9832 58.3032 16.9831 58.2742L16.9799 10.4101C16.9799 10.076 16.8465 10.0097 16.5795 10.2114C13.4334 12.5872 10.8874 15.3166 8.94146 18.3996C7.7739 20.2498 6.87749 22.0143 6.25194 23.6933Z" fill="white"/>
<path d="M49.0635 10.2693V58.4084C49.0633 58.4249 49.0676 58.4411 49.076 58.4552C49.0844 58.4694 49.0966 58.4809 49.1112 58.4885C49.1258 58.4961 49.1422 58.4995 49.1586 58.4983C49.175 58.4971 49.1908 58.4914 49.2041 58.4817C52.2973 56.2912 54.9289 53.568 57.099 50.3118C57.9517 49.0312 58.6088 47.5671 59.321 46.1673C60.7514 43.3401 61.4636 39.8374 61.6959 36.6495C61.7081 36.4763 61.8018 36.3887 61.9771 36.3866L65.8679 36.3771C65.8863 36.377 65.9044 36.3808 65.9212 36.3882C65.938 36.3955 65.9531 36.4063 65.9655 36.4199C65.9779 36.4334 65.9873 36.4494 65.9931 36.4668C65.9989 36.4842 66.0011 36.5026 65.9993 36.5209C65.3473 44.5899 62.351 51.4975 57.0103 57.2436C54.3451 60.1105 51.0013 62.5129 47.6881 64.0595C46.8588 64.4466 46.0428 64.8297 45.2399 65.2087C45.0525 65.2984 44.9587 65.2393 44.9587 65.0315L44.8823 3.32485C44.8822 3.30409 44.8872 3.28361 44.8969 3.26527C44.9067 3.24693 44.9208 3.23129 44.9381 3.21977C44.9554 3.20825 44.9752 3.20119 44.9959 3.19925C45.0166 3.19731 45.0374 3.20053 45.0565 3.20863C50.5072 5.4704 54.9625 8.74692 58.4224 13.0382C60.6292 15.7768 62.3775 19.0472 63.8904 22.284C63.909 22.3231 63.9173 22.3663 63.9147 22.4096C63.9121 22.4529 63.8985 22.4947 63.8753 22.5314C63.8521 22.568 63.8201 22.5981 63.7821 22.619C63.7441 22.6399 63.7014 22.6508 63.6581 22.6507L59.9537 22.6484C59.6501 22.6484 59.4371 22.5098 59.3149 22.2327C57.5544 18.2818 54.9391 14.8015 51.469 11.7919C50.7507 11.1684 50.1333 10.5663 49.2561 10.1475C49.1277 10.0863 49.0635 10.1267 49.0635 10.2693Z" fill="white"/>
<path d="M161.75 66.8836H159.055C159.001 66.8836 158.974 66.853 158.974 66.7918L158.997 60.1172L155.855 50.6329C155.84 50.5717 155.863 50.5411 155.924 50.5411H158.539C158.615 50.5411 158.661 50.5717 158.676 50.6329L160.408 56.9519L162.174 50.6329C162.189 50.5717 162.228 50.5411 162.289 50.5411H164.927C164.988 50.5411 165.011 50.5717 164.995 50.6329L161.819 60.0255L161.842 66.7918C161.842 66.853 161.811 66.8836 161.75 66.8836Z" fill="white"/>
<path d="M152.461 66.8836H149.811C149.743 66.8836 149.708 66.8453 149.708 66.7689V53.3738H146.658C146.581 53.3738 146.543 53.3356 146.543 53.2591L146.566 50.6329C146.566 50.5717 146.596 50.5411 146.658 50.5411H155.58C155.664 50.5411 155.706 50.5717 155.706 50.6329V53.2591C155.706 53.3356 155.676 53.3738 155.614 53.3738H152.529L152.552 66.7689C152.552 66.8453 152.522 66.8836 152.461 66.8836Z" fill="white"/>
<path d="M145.293 66.8836H142.632C142.556 66.8836 142.517 66.8453 142.517 66.7689L142.54 50.6329C142.54 50.5717 142.571 50.5411 142.632 50.5411H145.27C145.331 50.5411 145.361 50.5717 145.361 50.6329L145.384 66.7689C145.384 66.8453 145.354 66.8836 145.293 66.8836Z" fill="white"/>
<path d="M134.18 66.8836H131.829C131.707 66.8836 131.645 66.83 131.645 66.723L131.622 50.7246C131.622 50.6023 131.684 50.5411 131.806 50.5411H133.928L137.896 59.7961L137.781 50.7246C137.781 50.6023 137.85 50.5411 137.987 50.5411H140.315C140.407 50.5411 140.453 50.6023 140.453 50.7246L140.476 66.7459C140.476 66.8377 140.438 66.8836 140.361 66.8836H138.297L134.226 58.2364L134.398 66.7001C134.398 66.8224 134.325 66.8836 134.18 66.8836Z" fill="white"/>
<path d="M125.143 67.1129C124.317 67.1129 123.552 66.8988 122.849 66.4707C122.146 66.0425 121.584 65.4691 121.163 64.7504C120.75 64.0241 120.544 63.2328 120.544 62.3765L120.59 50.6329C120.59 50.5717 120.62 50.5411 120.682 50.5411H123.319C123.38 50.5411 123.411 50.5717 123.411 50.6329V62.3765C123.411 62.904 123.579 63.3551 123.916 63.7297C124.252 64.0967 124.661 64.2802 125.143 64.2802C125.647 64.2802 126.068 64.0967 126.404 63.7297C126.741 63.3551 126.909 62.904 126.909 62.3765V50.6329C126.909 50.5717 126.939 50.5411 127.001 50.5411H129.638C129.7 50.5411 129.73 50.5717 129.73 50.6329L129.776 62.3765C129.776 63.2404 129.57 64.0356 129.157 64.7619C128.736 65.4806 128.178 66.054 127.482 66.4822C126.787 66.9027 126.007 67.1129 125.143 67.1129Z" fill="white"/>
<path d="M110.956 66.8836H108.296C108.235 66.8836 108.204 66.8453 108.204 66.7689L108.25 50.6329C108.25 50.5717 108.28 50.5411 108.342 50.5411H111.209C111.27 50.5411 111.323 50.5717 111.369 50.6329L113.514 53.7293L115.647 50.6329C115.693 50.5717 115.75 50.5411 115.819 50.5411H118.698C118.766 50.5411 118.801 50.5717 118.801 50.6329L118.847 66.7689C118.847 66.8453 118.816 66.8836 118.755 66.8836H116.094C116.033 66.8836 116.002 66.8453 116.002 66.7689L115.98 54.7844L113.514 58.3625L111.071 54.7844L111.048 66.7689C111.048 66.8453 111.018 66.8836 110.956 66.8836Z" fill="white"/>
<path d="M98.3412 66.8836H95.6805C95.6193 66.8836 95.5887 66.8453 95.5887 66.7689L95.6346 50.6329C95.6346 50.5717 95.6652 50.5411 95.7264 50.5411H98.5935C98.6546 50.5411 98.7081 50.5717 98.754 50.6329L100.899 53.7293L103.032 50.6329C103.078 50.5717 103.135 50.5411 103.204 50.5411H106.082C106.151 50.5411 106.186 50.5717 106.186 50.6329L106.231 66.7689C106.231 66.8453 106.201 66.8836 106.14 66.8836H103.479C103.418 66.8836 103.387 66.8453 103.387 66.7689L103.364 54.7844L100.899 58.3625L98.4558 54.7844L98.4329 66.7689C98.4329 66.8453 98.4023 66.8836 98.3412 66.8836Z" fill="white"/>
<path d="M89.2009 67.1129C88.3675 67.1129 87.5991 66.8988 86.8957 66.4707C86.2 66.0425 85.638 65.4729 85.2099 64.7619C84.7894 64.0432 84.5791 63.2557 84.5791 62.3994L84.602 54.9564C84.602 54.0848 84.8123 53.3011 85.2328 52.6054C85.6457 51.902 86.2038 51.3401 86.9072 50.9195C87.6106 50.4914 88.3751 50.2773 89.2009 50.2773C90.0572 50.2773 90.8255 50.4876 91.506 50.9081C92.1941 51.3286 92.7446 51.8944 93.1575 52.6054C93.578 53.3088 93.7882 54.0925 93.7882 54.9564L93.8111 62.3994C93.8111 63.2557 93.6047 64.0394 93.1919 64.7504C92.7713 65.4691 92.2132 66.0425 91.5175 66.4707C90.8217 66.8988 90.0495 67.1129 89.2009 67.1129ZM89.2009 64.2802C89.6749 64.2802 90.0877 64.0891 90.4394 63.7068C90.7911 63.3169 90.967 62.8811 90.967 62.3994L90.9441 54.9564C90.9441 54.4365 90.7797 53.9969 90.4509 53.6375C90.1222 53.2782 89.7055 53.0985 89.2009 53.0985C88.7192 53.0985 88.3063 53.2744 87.9623 53.6261C87.6182 53.9778 87.4462 54.4212 87.4462 54.9564V62.3994C87.4462 62.9116 87.6182 63.3551 87.9623 63.7297C88.3063 64.0967 88.7192 64.2802 89.2009 64.2802Z" fill="white"/>
<path d="M78.5352 67.113C77.6866 67.113 76.9105 66.8989 76.2071 66.4708C75.5114 66.0426 74.9571 65.4692 74.5442 64.7505C74.139 64.0242 73.9364 63.2176 73.9364 62.3307L73.9593 55.0024C73.9593 54.1308 74.1581 53.3433 74.5557 52.6399C74.9533 51.9289 75.4999 51.3593 76.1957 50.9311C76.8991 50.4953 77.6789 50.2774 78.5352 50.2774C79.4068 50.2774 80.1828 50.4877 80.8633 50.9082C81.5514 51.3287 82.0981 51.8983 82.5033 52.617C82.9161 53.328 83.1226 54.1231 83.1226 55.0024V56.0804C83.1226 56.1416 83.092 56.1722 83.0308 56.1722H80.3931C80.3319 56.1722 80.3014 56.1416 80.3014 56.0804V55.0024C80.3014 54.4825 80.1332 54.0352 79.7967 53.6606C79.4603 53.2859 79.0398 53.0986 78.5352 53.0986C77.9771 53.0986 77.5489 53.2898 77.2508 53.672C76.9526 54.0543 76.8035 54.4978 76.8035 55.0024V62.3307C76.8035 62.9041 76.9717 63.3743 77.3081 63.7413C77.6445 64.1006 78.0536 64.2803 78.5352 64.2803C79.0398 64.2803 79.4603 64.0815 79.7967 63.6839C80.1332 63.2787 80.3014 62.8276 80.3014 62.3307V61.2412C80.3014 61.18 80.3319 61.1494 80.3931 61.1494H83.0538C83.1149 61.1494 83.1455 61.18 83.1455 61.2412V62.3307C83.1455 63.2099 82.9391 64.0127 82.5262 64.739C82.1057 65.4577 81.5514 66.035 80.8633 66.4708C80.1752 66.8989 79.3992 67.113 78.5352 67.113Z" fill="white"/>
<path d="M160.28 79.3111L161.555 72.2516C161.562 72.2248 161.578 72.2115 161.605 72.2115H163.095C163.122 72.2115 163.139 72.2248 163.145 72.2516L164.37 79.3111C164.373 79.3446 164.36 79.3613 164.329 79.3613H163.19C163.157 79.3613 163.139 79.3446 163.135 79.3111L163.025 78.5585H161.625L161.515 79.3111C161.511 79.3446 161.495 79.3613 161.465 79.3613H160.321C160.294 79.3613 160.28 79.3446 160.28 79.3111ZM162.292 74.5747L161.831 77.4597H162.819L162.398 74.5747L162.338 74.1933L162.292 74.5747Z" fill="white"/>
<path d="M157.742 79.3613H155.9C155.873 79.3613 155.86 79.3446 155.86 79.3111L155.88 72.2516C155.88 72.2248 155.894 72.2115 155.92 72.2115H157.897C158.282 72.2115 158.631 72.3051 158.946 72.4924C159.254 72.6797 159.496 72.9289 159.673 73.24C159.851 73.5478 159.939 73.8823 159.939 74.2435C159.939 74.5379 159.872 74.8122 159.739 75.0664C159.605 75.3206 159.446 75.5263 159.262 75.6835C159.459 75.8809 159.613 76.11 159.724 76.3709C159.834 76.6318 159.889 76.9061 159.889 77.1938C159.889 77.5918 159.794 77.9547 159.603 78.2825C159.409 78.6103 159.15 78.8729 158.825 79.0703C158.501 79.2643 158.14 79.3613 157.742 79.3613ZM157.897 73.4307H157.114V75.0463H157.897C158.135 75.0463 158.327 74.9627 158.474 74.7954C158.621 74.6248 158.695 74.4409 158.695 74.2435C158.695 74.0261 158.616 73.8371 158.459 73.6765C158.302 73.5126 158.115 73.4307 157.897 73.4307ZM157.742 76.2906H157.114L157.104 78.1069H157.742C157.989 78.1069 158.202 78.0166 158.379 77.836C158.556 77.6554 158.645 77.4413 158.645 77.1938C158.645 76.9462 158.556 76.7338 158.379 76.5565C158.202 76.3793 157.989 76.2906 157.742 76.2906Z" fill="white"/>
<path d="M151.129 79.3111L152.403 72.2516C152.41 72.2248 152.427 72.2115 152.453 72.2115H153.943C153.97 72.2115 153.987 72.2248 153.994 72.2516L155.218 79.3111C155.221 79.3446 155.208 79.3613 155.178 79.3613H154.039C154.005 79.3613 153.987 79.3446 153.984 79.3111L153.873 78.5585H152.473L152.363 79.3111C152.36 79.3446 152.343 79.3613 152.313 79.3613H151.169C151.142 79.3613 151.129 79.3446 151.129 79.3111ZM153.141 74.5747L152.679 77.4597H153.667L153.246 74.5747L153.186 74.1933L153.141 74.5747Z" fill="white"/>
<path d="M147.827 79.3613H146.799C146.745 79.3613 146.718 79.3379 146.718 79.291L146.708 72.2917C146.708 72.2382 146.735 72.2115 146.789 72.2115H147.717L149.453 76.2605L149.403 72.2917C149.403 72.2382 149.433 72.2115 149.493 72.2115H150.512C150.552 72.2115 150.572 72.2382 150.572 72.2917L150.582 79.3011C150.582 79.3412 150.565 79.3613 150.532 79.3613H149.629L147.847 75.5781L147.923 79.281C147.923 79.3345 147.891 79.3613 147.827 79.3613Z" fill="white"/>
<path d="M143.061 79.3613H142.032C141.979 79.3613 141.952 79.3379 141.952 79.291L141.942 72.2917C141.942 72.2382 141.969 72.2115 142.022 72.2115H142.95L144.686 76.2605L144.636 72.2917C144.636 72.2382 144.666 72.2115 144.727 72.2115H145.745C145.785 72.2115 145.805 72.2382 145.805 72.2917L145.815 79.3011C145.815 79.3412 145.799 79.3613 145.765 79.3613H144.862L143.081 75.5781L143.156 79.281C143.156 79.3345 143.124 79.3613 143.061 79.3613Z" fill="white"/>
<path d="M137.21 79.3111L138.485 72.2516C138.491 72.2248 138.508 72.2114 138.535 72.2114H140.025C140.052 72.2114 140.069 72.2248 140.075 72.2516L141.3 79.3111C141.303 79.3445 141.289 79.3612 141.259 79.3612H140.12C140.087 79.3612 140.069 79.3445 140.065 79.3111L139.955 78.5585H138.555L138.445 79.3111C138.441 79.3445 138.425 79.3612 138.394 79.3612H137.25C137.224 79.3612 137.21 79.3445 137.21 79.3111ZM139.222 74.5746L138.761 77.4596H139.749L139.328 74.5746L139.267 74.1933L139.222 74.5746Z" fill="white"/>
<path d="M135.74 41.1945H128.148C128.086 41.1945 128.056 41.1563 128.056 41.0798L128.079 24.9438C128.079 24.8826 128.109 24.8521 128.17 24.8521H135.717C135.778 24.8521 135.808 24.8903 135.808 24.9667V27.593C135.808 27.6542 135.778 27.6847 135.717 27.6847H130.9V31.3546H135.717C135.778 31.3546 135.808 31.3852 135.808 31.4464L135.831 34.107C135.831 34.1682 135.801 34.1988 135.74 34.1988H130.9V38.3045H135.74C135.801 38.3045 135.831 38.3427 135.831 38.4191V41.1027C135.831 41.1639 135.801 41.1945 135.74 41.1945Z" fill="white"/>
<path d="M121.737 41.4238C120.888 41.4238 120.112 41.2098 119.409 40.7816C118.713 40.3535 118.159 39.78 117.746 39.0614C117.34 38.335 117.138 37.5284 117.138 36.6415L117.161 29.3132C117.161 28.4416 117.36 27.6541 117.757 26.9507C118.155 26.2397 118.701 25.6701 119.397 25.242C120.1 24.8062 120.88 24.5883 121.737 24.5883C122.608 24.5883 123.384 24.7985 124.065 25.219C124.753 25.6395 125.299 26.2091 125.705 26.9278C126.118 27.6388 126.324 28.434 126.324 29.3132V30.3913C126.324 30.4524 126.293 30.483 126.232 30.483H123.595C123.533 30.483 123.503 30.4524 123.503 30.3913V29.3132C123.503 28.7933 123.335 28.3461 122.998 27.9714C122.662 27.5968 122.241 27.4095 121.737 27.4095C121.179 27.4095 120.75 27.6006 120.452 27.9829C120.154 28.3652 120.005 28.8086 120.005 29.3132V36.6415C120.005 37.2149 120.173 37.6852 120.51 38.0521C120.846 38.4115 121.255 38.5912 121.737 38.5912C122.241 38.5912 122.662 38.3924 122.998 37.9948C123.335 37.5896 123.503 37.1385 123.503 36.6415V35.552C123.503 35.4909 123.533 35.4603 123.595 35.4603H126.255C126.316 35.4603 126.347 35.4909 126.347 35.552V36.6415C126.347 37.5208 126.14 38.3236 125.728 39.0499C125.307 39.7686 124.753 40.3458 124.065 40.7816C123.377 41.2098 122.601 41.4238 121.737 41.4238Z" fill="white"/>
<path d="M108.835 41.1945H106.174C106.113 41.1945 106.082 41.1563 106.082 41.0798L106.128 24.9438C106.128 24.8826 106.159 24.8521 106.22 24.8521H110.968C111.816 24.8521 112.596 25.0585 113.307 25.4713C114.018 25.8842 114.584 26.4385 115.005 27.1343C115.433 27.83 115.647 28.6175 115.647 29.4967C115.647 30.0702 115.559 30.5901 115.383 31.0564C115.207 31.5228 115.001 31.9166 114.764 32.2377C114.534 32.5588 114.324 32.7958 114.133 32.9487C114.982 33.8891 115.406 34.9939 115.406 36.2631L115.429 41.0798C115.429 41.1563 115.391 41.1945 115.314 41.1945H112.654C112.592 41.1945 112.562 41.1716 112.562 41.1257V36.2631C112.562 35.6973 112.363 35.208 111.966 34.7951C111.568 34.3823 111.079 34.1758 110.498 34.1758H108.949L108.926 41.0798C108.926 41.1563 108.896 41.1945 108.835 41.1945ZM110.968 27.6618H108.949V31.3546H110.968C111.449 31.3546 111.878 31.175 112.252 30.8156C112.635 30.4563 112.826 30.0166 112.826 29.4967C112.826 28.9998 112.642 28.5716 112.275 28.2123C111.908 27.8453 111.472 27.6618 110.968 27.6618Z" fill="white"/>
<path d="M99.6027 41.4239C98.777 41.4239 98.0124 41.2098 97.3091 40.7816C96.6057 40.3535 96.0437 39.7801 95.6232 39.0614C95.2103 38.335 95.0039 37.5437 95.0039 36.6874L95.0498 24.9438C95.0498 24.8826 95.0804 24.8521 95.1415 24.8521H97.7793C97.8404 24.8521 97.871 24.8826 97.871 24.9438V36.6874C97.871 37.215 98.0392 37.6661 98.3756 38.0407C98.712 38.4077 99.1211 38.5912 99.6027 38.5912C100.107 38.5912 100.528 38.4077 100.864 38.0407C101.201 37.6661 101.369 37.215 101.369 36.6874V24.9438C101.369 24.8826 101.399 24.8521 101.461 24.8521H104.098C104.159 24.8521 104.19 24.8826 104.19 24.9438L104.236 36.6874C104.236 37.5514 104.03 38.3465 103.617 39.0728C103.196 39.7915 102.638 40.365 101.942 40.7931C101.247 41.2136 100.467 41.4239 99.6027 41.4239Z" fill="white"/>
<path d="M88.8913 41.4238C88.0579 41.4238 87.2895 41.2098 86.5861 40.7816C85.8904 40.3535 85.3284 39.7839 84.9003 39.0728C84.4798 38.3541 84.2695 37.5666 84.2695 36.7103L84.2925 29.2674C84.2925 28.3958 84.5027 27.6121 84.9232 26.9163C85.3361 26.2129 85.8942 25.651 86.5976 25.2305C87.301 24.8023 88.0656 24.5883 88.8913 24.5883C89.7476 24.5883 90.516 24.7985 91.1964 25.219C91.8845 25.6395 92.435 26.2053 92.8479 26.9163C93.2684 27.6197 93.4786 28.4034 93.4786 29.2674L93.5016 36.7103C93.5016 37.5666 93.2951 38.3503 92.8823 39.0614C92.4618 39.78 91.9037 40.3535 91.2079 40.7816C90.5122 41.2098 89.7399 41.4238 88.8913 41.4238ZM88.8913 38.5912C89.3653 38.5912 89.7782 38.4 90.1299 38.0177C90.4816 37.6278 90.6574 37.192 90.6574 36.7103L90.6345 29.2674C90.6345 28.7475 90.4701 28.3078 90.1413 27.9485C89.8126 27.5892 89.3959 27.4095 88.8913 27.4095C88.4096 27.4095 87.9968 27.5853 87.6527 27.937C87.3087 28.2887 87.1366 28.7322 87.1366 29.2674V36.7103C87.1366 37.2226 87.3087 37.666 87.6527 38.0407C87.9968 38.4077 88.4096 38.5912 88.8913 38.5912Z" fill="white"/>
<path d="M78.3059 41.4239C77.4725 41.4239 76.7041 41.2099 76.0007 40.7817C75.305 40.3536 74.7468 39.784 74.3263 39.0729C73.9135 38.3542 73.707 37.5667 73.707 36.7104V35.6324C73.707 35.5483 73.7453 35.5063 73.8217 35.5063H76.4594C76.5206 35.5063 76.5512 35.5483 76.5512 35.6324V36.7104C76.5512 37.2227 76.7232 37.6661 77.0673 38.0408C77.4113 38.4078 77.8242 38.5913 78.3059 38.5913C78.7952 38.5913 79.2119 38.4039 79.5559 38.0293C79.9 37.647 80.072 37.2074 80.072 36.7104C80.072 36.137 79.6973 35.6362 78.9481 35.2081C78.8258 35.1316 78.6652 35.0399 78.4664 34.9328C78.2753 34.8182 78.0459 34.6882 77.7783 34.5429C77.5107 34.3977 77.2508 34.2562 76.9985 34.1186C76.7462 33.9733 76.5015 33.8357 76.2645 33.7057C75.4082 33.2011 74.7698 32.5704 74.3493 31.8134C73.9364 31.0489 73.73 30.1926 73.73 29.2445C73.73 28.3729 73.944 27.5854 74.3722 26.882C74.8004 26.1863 75.3585 25.6358 76.0466 25.2306C76.7423 24.8177 77.4954 24.6113 78.3059 24.6113C79.1392 24.6113 79.9038 24.8177 80.5995 25.2306C81.2953 25.6511 81.8496 26.2092 82.2624 26.905C82.683 27.6007 82.8932 28.3806 82.8932 29.2445V31.1712C82.8932 31.2324 82.8626 31.263 82.8015 31.263H80.1637C80.1026 31.263 80.072 31.2324 80.072 31.1712L80.049 29.2445C80.049 28.694 79.877 28.2468 79.533 27.9027C79.1889 27.5587 78.7799 27.3866 78.3059 27.3866C77.8242 27.3866 77.4113 27.5701 77.0673 27.9371C76.7232 28.3041 76.5512 28.7399 76.5512 29.2445C76.5512 29.7568 76.6582 30.1849 76.8723 30.529C77.094 30.873 77.4954 31.2018 78.0765 31.5153C78.1376 31.5458 78.2791 31.6223 78.5008 31.7446C78.7225 31.867 78.9672 32.0046 79.2348 32.1575C79.51 32.3028 79.7585 32.4366 79.9802 32.5589C80.202 32.6736 80.3358 32.7424 80.3816 32.7653C81.1615 33.2011 81.777 33.7363 82.228 34.3709C82.6868 35.0055 82.9161 35.7853 82.9161 36.7104C82.9161 37.605 82.7097 38.4078 82.2969 39.1188C81.8763 39.8298 81.3182 40.3918 80.6225 40.8047C79.9267 41.2175 79.1545 41.4239 78.3059 41.4239Z" fill="white"/>
<path d="M108.342 16.6064H105.991C105.868 16.6064 105.807 16.5528 105.807 16.4458L105.784 0.44741C105.784 0.325081 105.845 0.263916 105.968 0.263916H108.089L112.057 9.5189L111.943 0.44741C111.943 0.325081 112.012 0.263916 112.149 0.263916H114.477C114.569 0.263916 114.615 0.325081 114.615 0.44741L114.638 16.4687C114.638 16.5605 114.6 16.6064 114.523 16.6064H112.459L108.388 7.9592L108.56 16.4229C108.56 16.5452 108.487 16.6064 108.342 16.6064Z" fill="white"/>
<path d="M103.605 16.6064H96.013C95.9518 16.6064 95.9213 16.5681 95.9213 16.4917L95.9442 0.355663C95.9442 0.294498 95.9748 0.263916 96.0359 0.263916H103.582C103.643 0.263916 103.674 0.302144 103.674 0.3786V3.00486C103.674 3.06602 103.643 3.09661 103.582 3.09661H98.7654V6.76649H103.582C103.643 6.76649 103.674 6.79707 103.674 6.85824L103.697 9.5189C103.697 9.58007 103.666 9.61065 103.605 9.61065H98.7654V13.7163H103.605C103.666 13.7163 103.697 13.7546 103.697 13.831V16.5146C103.697 16.5758 103.666 16.6064 103.605 16.6064Z" fill="white"/>
<path d="M87.7558 16.6064H85.1181C85.0416 16.6064 85.0034 16.5681 85.0034 16.4917L85.0493 0.355663C85.0493 0.294498 85.0799 0.263916 85.141 0.263916H89.6596C91.097 0.263916 92.2323 0.703537 93.0657 1.58278C93.9067 2.45438 94.3272 3.64327 94.3272 5.14945C94.3272 6.25041 94.1093 7.20993 93.6735 8.02801C93.2301 8.83844 92.6567 9.46538 91.9533 9.90883C91.2499 10.3523 90.4853 10.574 89.6596 10.574H87.8705V16.4917C87.8705 16.5681 87.8323 16.6064 87.7558 16.6064ZM89.6596 3.05073L87.8705 3.07367V7.72983H89.6596C90.1565 7.72983 90.5885 7.49282 90.9555 7.01879C91.3225 6.53712 91.506 5.91401 91.506 5.14945C91.506 4.5378 91.3416 4.03701 91.0129 3.64709C90.6841 3.24952 90.233 3.05073 89.6596 3.05073Z" fill="white"/>
<path d="M78.6155 16.8356C77.7822 16.8356 77.0138 16.6216 76.3104 16.1934C75.6146 15.7653 75.0527 15.1957 74.6245 14.4846C74.204 13.7659 73.9938 12.9784 73.9938 12.1221L74.0167 4.67916C74.0167 3.80756 74.227 3.02389 74.6475 2.32814C75.0603 1.62475 75.6185 1.0628 76.3219 0.642291C77.0253 0.214138 77.7898 6.10352e-05 78.6155 6.10352e-05C79.4718 6.10352e-05 80.2402 0.210315 80.9207 0.630822C81.6088 1.05133 82.1593 1.6171 82.5721 2.32814C82.9926 3.03154 83.2029 3.81521 83.2029 4.67916L83.2258 12.1221C83.2258 12.9784 83.0194 13.7621 82.6065 14.4732C82.186 15.1918 81.6279 15.7653 80.9321 16.1934C80.2364 16.6216 79.4642 16.8356 78.6155 16.8356ZM78.6155 14.003C79.0896 14.003 79.5024 13.8118 79.8541 13.4295C80.2058 13.0396 80.3817 12.6038 80.3817 12.1221L80.3587 4.67916C80.3587 4.15926 80.1943 3.71964 79.8656 3.3603C79.5368 3.00095 79.1201 2.82128 78.6155 2.82128C78.1339 2.82128 77.721 2.99713 77.3769 3.34883C77.0329 3.70053 76.8609 4.14397 76.8609 4.67916V12.1221C76.8609 12.6344 77.0329 13.0778 77.3769 13.4525C77.721 13.8195 78.1339 14.003 78.6155 14.003Z" fill="white"/>
</svg>
